<svg width="20" height="21" viewBox="0 0 20 21" fill="none" xmlns="http://www.w3.org/2000/svg">
<g clipPath="url(#clip0_593_16472)">
<path d="M7.50004 6.33301H5.00004C4.55801 6.33301 4.13409 6.5086 3.82153 6.82116C3.50897 7.13372 3.33337 7.55765 3.33337 7.99967V15.4997C3.33337 15.9417 3.50897 16.3656 3.82153 16.6782C4.13409 16.9907 4.55801 17.1663 5.00004 17.1663H12.5C12.9421 17.1663 13.366 16.9907 13.6786 16.6782C13.9911 16.3656 14.1667 15.9417 14.1667 15.4997V12.9997" stroke="#52525B" strokeLinecap="round" strokeLinejoin="round"/>
<path d="M7.5 12.9995H10L17.0833 5.9162C17.4149 5.58468 17.6011 5.13505 17.6011 4.6662C17.6011 4.19736 17.4149 3.74773 17.0833 3.4162C16.7518 3.08468 16.3022 2.89844 15.8333 2.89844C15.3645 2.89844 14.9149 3.08468 14.5833 3.4162L7.5 10.4995V12.9995Z" stroke="#52525B" strokeLinecap="round" strokeLinejoin="round"/>
<path d="M13.3334 4.66699L15.8334 7.16699" stroke="#52525B" strokeLinecap="round" strokeLinejoin="round"/>
</g>
<defs>
<clipPath id="clip0_593_16472">
<rect width="20" height="20" fill="white" transform="translate(0 0.5)"/>
</clipPath>
</defs>
</svg>
