<svg width="24" height="24" viewBox="0 0 24 24" fill="none" xmlns="http://www.w3.org/2000/svg">
<g clip-path="url(#clip0_2964_29984)">
<path d="M24.0002 12.266C24.0147 11.441 23.9278 10.6174 23.7414 9.81274H12.2451V14.266H18.9933C18.8655 15.0468 18.5778 15.7943 18.1476 16.4633C17.7174 17.1324 17.1536 17.7093 16.49 18.1593L16.4665 18.3084L20.1016 21.0681L20.3533 21.0927C22.6661 18.9994 23.9997 15.9193 23.9997 12.266" fill="#4285F4"/>
<path d="M12.2449 24C15.5509 24 18.3264 22.9333 20.3538 21.0933L16.4898 18.1598C15.4559 18.8667 14.0681 19.36 12.2449 19.36C10.6965 19.3512 9.19023 18.8646 7.93984 17.9695C6.68944 17.0744 5.75842 15.8162 5.27886 14.3733L5.13536 14.3853L1.35556 17.2519L1.30615 17.3865C2.32415 19.3748 3.88643 21.0464 5.8183 22.2143C7.75018 23.3823 9.97549 24.0005 12.2454 24" fill="#34A853"/>
<path d="M5.27879 14.3733C5.01096 13.6094 4.87276 12.8077 4.86969 12C4.87462 11.1936 5.00772 10.393 5.2642 9.62675L5.25738 9.46767L1.43123 6.55493L1.30608 6.61326C0.447315 8.28416 0 10.129 0 11.9999C0 13.8708 0.447315 15.7156 1.30608 17.3865L5.27879 14.3733Z" fill="#FBBC05"/>
<path d="M12.2449 4.6401C13.9995 4.6134 15.6964 5.25378 16.9796 6.42684L20.4355 3.1201C18.219 1.08236 15.2838 -0.0357161 12.2449 0.000102343C9.97503 -0.000426917 7.74974 0.617825 5.81786 1.78573C3.88599 2.95363 2.32369 4.62514 1.30566 6.61336L5.2652 9.62684C5.74948 8.18421 6.68359 6.92692 7.93583 6.03224C9.18806 5.13757 10.6953 4.65064 12.2449 4.6401Z" fill="#EB4335"/>
</g>
<defs>
<clipPath id="clip0_2964_29984">
<rect width="24" height="24" fill="white"/>
</clipPath>
</defs>
</svg>
