<svg width="14" height="9" viewBox="0 0 14 9" fill="none" xmlns="http://www.w3.org/2000/svg">
<path fillRule="evenodd" clipRule="evenodd" d="M9.08889 0.468699C9.17306 0.131465 9.49592 -0.0686644 9.81004 0.0216971L13.5636 1.10149C13.7144 1.14489 13.843 1.25084 13.9211 1.39603C13.9992 1.54123 14.0204 1.71378 13.9799 1.87572L12.9742 5.90558C12.89 6.24282 12.5671 6.44295 12.253 6.35258C11.9389 6.26222 11.7525 5.91559 11.8367 5.57835L12.4722 3.03201C10.7009 4.20374 9.22792 5.70441 8.08124 7.41725C7.9804 7.56788 7.82303 7.66336 7.65081 7.67839C7.4786 7.69341 7.30893 7.62648 7.18676 7.49531L4.71049 4.83676L1.00516 8.81485C0.775219 9.06172 0.402404 9.06172 0.172459 8.81485C-0.0574863 8.56797 -0.0574863 8.16771 0.172459 7.92084L4.29414 3.49575C4.52408 3.24888 4.8969 3.24888 5.12684 3.49575L7.53987 6.08641C8.71824 4.47418 10.1773 3.05823 11.8934 1.92993L9.50524 1.24293C9.19113 1.15257 9.00473 0.805933 9.08889 0.468699Z" fill="#059669"/>
</svg>
