<svg width="8" height="10" viewBox="0 0 8 10" fill="none" xmlns="http://www.w3.org/2000/svg">
<path fillRule="evenodd" clipRule="evenodd" d="M0.184136 9.6323C-0.0547276 9.40263 -0.0621752 9.0228 0.167501 8.78394L3.5675 5.18394C3.68062 5.06629 3.83679 4.9998 4 4.9998C4.16321 4.9998 4.31938 5.06629 4.4325 5.18394L7.8325 8.78394C8.06218 9.0228 8.05473 9.40263 7.81587 9.6323C7.577 9.86198 7.19718 9.85453 6.9675 9.61567L4 6.46547L1.0325 9.61567C0.802825 9.85453 0.422999 9.86198 0.184136 9.6323ZM0.184135 4.8323C-0.0547277 4.60263 -0.0621754 4.2228 0.167501 3.98394L3.5675 0.383938C3.68062 0.266291 3.83679 0.199803 4 0.199803C4.16321 0.199803 4.31938 0.26629 4.4325 0.383938L7.8325 3.98394C8.06218 4.2228 8.05473 4.60263 7.81587 4.8323C7.577 5.06198 7.19718 5.05453 6.9675 4.81567L4 1.66547L1.0325 4.81567C0.802824 5.05453 0.422998 5.06198 0.184135 4.8323Z" fill="#DC2626"/>
</svg>
