<svg width="24" height="24" viewBox="0 0 24 24" fill="none" xmlns="http://www.w3.org/2000/svg">
<rect width="24" height="24" rx="12" fill="#059669" fill-opacity="0.15"/>
<path fill-rule="evenodd" clip-rule="evenodd" d="M12 20C16.4183 20 20 16.4183 20 12C20 7.58172 16.4183 4 12 4C7.58172 4 4 7.58172 4 12C4 16.4183 7.58172 20 12 20ZM15.8566 10.1911C16.1002 9.85614 16.0261 9.38708 15.6911 9.14345C15.3561 8.89982 14.8871 8.97388 14.6434 9.30887L11.1597 14.099L9.28033 12.2197C8.98744 11.9268 8.51256 11.9268 8.21967 12.2197C7.92678 12.5126 7.92678 12.9874 8.21967 13.2803L10.7197 15.7803C10.8748 15.9354 11.09 16.0149 11.3087 15.9977C11.5273 15.9805 11.7275 15.8685 11.8566 15.6911L15.8566 10.1911Z" fill="#059669"/>
</svg>
